<?xml version="1.0" encoding="UTF-8" standalone="no"?>
<!-- Created with Inkscape (http://www.inkscape.org/) -->

<svg
   width="846.40942mm"
   height="183.94281mm"
   viewBox="0 0 846.40944 183.94281"
   version="1.1"
   id="svg5"
   inkscape:version="1.1.2 (0a00cf5339, 2022-02-04)"
   sodipodi:docname="unikorn.svg"
   xmlns:inkscape="http://www.inkscape.org/namespaces/inkscape"
   xmlns:sodipodi="http://sodipodi.sourceforge.net/DTD/sodipodi-0.dtd"
   xmlns="http://www.w3.org/2000/svg"
   xmlns:svg="http://www.w3.org/2000/svg">
  <sodipodi:namedview
     id="namedview7"
     pagecolor="#000000"
     bordercolor="#666666"
     borderopacity="1.0"
     inkscape:pageshadow="2"
     inkscape:pageopacity="1"
     inkscape:pagecheckerboard="0"
     inkscape:document-units="mm"
     showgrid="false"
     inkscape:zoom="0.1699858"
     inkscape:cx="2485.5017"
     inkscape:cy="826.53961"
     inkscape:window-width="1920"
     inkscape:window-height="1082"
     inkscape:window-x="0"
     inkscape:window-y="27"
     inkscape:window-maximized="1"
     inkscape:current-layer="layer1"
     fit-margin-top="0"
     fit-margin-left="0"
     fit-margin-right="0"
     fit-margin-bottom="0" />
  <defs
     id="defs2">
    <rect
       x="871.2843"
       y="379.79694"
       width="584.44464"
       height="239.02631"
       id="rect18656" />
    <rect
       x="-66.973526"
       y="175.09711"
       width="1705.5103"
       height="469.54382"
       id="rect5785" />
  </defs>
  <g
     inkscape:label="Layer 1"
     inkscape:groupmode="layer"
     id="layer1"
     transform="translate(-63.127966,-15.312833)">
    <path
       id="path1495"
       style="fill:currentColor;fill-opacity:1;stroke:none;stroke-width:0.250663"
       d="M 155.00815,15.312833 A 91.971586,91.971586 0 0 0 63.127966,105.88921 l 0.49765,1.27383 1.23817,-3.55018 1.96525,0.73381 0.1974,-1.02319 1.61489,-0.1416 c 0,0 -1.1254,-1.6585 3.54501,-4.432796 4.6704,-2.77429 3.7977,-2.38848 3.7977,-2.38848 0,0 0.43672,-0.82629 1.75441,-2.66651 1.3177,-1.84021 1.97507,-1.75225 4.12895,-2.91455 2.15388,-1.1623 5.25394,-2.39107 5.25394,-2.39107 0,0 4.75787,-5.81543 6.63991,-7.40265 1.88204,-1.58721 2.59184,-2.38386 10.464474,-4.44934 7.87264,-2.06547 6.25285,-0.37104 6.25285,-0.37104 0,0 2.04222,-1.97981 5.27513,-4.27363 3.23291,-2.29384 3.02204,-1.58647 3.02204,-1.58647 0,0 0.70608,-0.695 -0.50695,0.63045 -1.21302,1.32546 -1.95388,4.15013 -1.95388,4.15013 0,0 1.04573,-0.94735 2.66288,-2.7714 1.61716,-1.82405 4.12792,-2.78588 4.12792,-2.78588 0,0 -0.70556,1.0951 -1.29708,1.37614 -0.59152,0.28103 -1.90324,1.95958 -1.90324,1.95958 0,0 0.16079,-0.17423 2.14043,-1.33636 1.97965,-1.16213 3.91139,-1.92236 3.91139,-1.92236 0,0 2.57048,-1.69095 5.43481,-2.89182 2.86434,-1.20086 2.5368,-0.51159 2.5368,-0.51159 0,0 2.63503,-2.05782 6.13089,-2.20297 3.49586,-0.14515 4.78421,0.47233 4.78421,0.47233 l 4.52272,-4.48397 c 0,0 0.28589,-1.34666 1.75906,-3.58118 1.47318,-2.23452 5.20072,-3.695895 5.20072,-3.695895 0,0 -1.47781,5.339255 -2.25516,9.986475 -0.77736,4.64723 -0.58705,4.87825 -0.58705,4.87825 l 1.12603,0.58756 c 0,0 3.38006,-2.02452 5.77536,-4.61005 2.3953,-2.58553 3.08879,-1.27265 5.43584,-4.12016 2.34705,-2.84752 2.73834,-4.95422 2.73834,-4.95422 0,0 0.73421,-0.76282 0.1173,3.23908 -0.61691,4.00191 -0.3919,5.11363 -2.1487,9.99939 -0.33582,0.93392 -0.67656,1.78606 -1.01183,2.59002 L 206.0655,45.913549 167.11026,81.584244 c 0.66914,1.00153 0.90382,1.5198 0.90382,1.5198 0,0 0.74143,1.41349 -0.96119,-0.70073 -0.12629,-0.15683 -0.24836,-0.28674 -0.37207,-0.42582 l -1.28674,1.17823 c 0.4215,0.6571 0.97287,1.33043 2.24172,3.15019 2.44534,3.50705 2.67644,5.4687 4.92735,8.17831 2.25092,2.70961 3.36065,3.32147 3.81527,5.763476 0.45462,2.44201 -0.36587,4.31343 -0.36587,4.31343 0,0 0.38529,3.46984 4.16771,10.19472 3.78243,6.72489 12.77364,21.07238 14.54226,24.37526 1.76862,3.30287 3.33887,5.83722 3.71347,7.72718 0.3746,1.88997 0.33969,4.31021 -0.8077,7.30033 -1.14739,2.99013 -1.56749,3.54965 -3.00189,5.95157 -1.43441,2.40192 -0.7044,3.28689 -4.62452,4.26744 -3.44226,0.86106 -3.74025,0.98031 -3.78891,1.00459 -0.0358,0.11232 -0.0436,0.15124 -0.10801,0.33796 -0.53269,1.54404 0.24531,0.67097 -3.39463,1.56322 -3.63991,0.89225 -2.3719,0.88258 -5.89369,-0.60359 -3.52179,-1.48617 -3.6499,-1.47943 -4.71599,-4.88807 -1.0661,-3.40864 -1.05369,-5.52524 -1.05369,-5.52524 0,0 -0.77649,-0.76124 -4.43693,-1.78284 -3.66044,-1.02159 -2.55752,-1.46824 -6.04149,-2.42827 -3.48398,-0.96005 -2.77467,0.56271 -7.25589,-0.0966 -4.38404,-0.64505 -6.43884,-3.30511 -9.70018,-6.8094 -3.26135,-3.50429 -4.93374,-3.20528 -7.84604,-3.98632 -2.91229,-0.78105 -1.83961,-3.67491 -4.1863,-5.05396 -2.34671,-1.37905 -0.7981,-1.8018 -4.89945,0.28164 -4.10134,2.08344 -3.12415,1.6384 -6.22752,7.80417 -3.10337,6.16577 -5.73658,12.8447 -11.97395,23.04769 -5.29054,8.65419 -8.18896,12.34666 -8.989114,13.32219 a 91.971586,91.971586 0 0 0 55.518054,18.69085 91.971586,91.971586 0 0 0 91.97165,-91.97113 91.971586,91.971586 0 0 0 -91.97165,-91.971647 z" />
    <text
       xml:space="preserve"
       transform="matrix(3.2467911,0,0,3.2467911,-2548.98,-1196.9521)"
       id="text18654"
       style="font-style:normal;font-weight:normal;font-size:40px;line-height:1.25;font-family:sans-serif;white-space:pre;shape-inside:url(#rect18656);fill:currentColor;fill-opacity:1;stroke:none"><tspan
         x="871.28516"
         y="416.28033"
         id="tspan15498"><tspan
           style="font-family:'outrun future';-inkscape-font-specification:'outrun future, Normal';fill:currentColor"
           id="tspan15496">UNIKORN</tspan></tspan></text>
  </g>
</svg>
